External Loads File
version=1
nRows=30
nColumns=13
Range=5.000000e-03-10 seconds
endheader
time 	forceRightX 	forceRightY 	forceRightZ 	pointRightX 	pointRightY 	pointRightZ 	forceLeftX 	forceLeftY 	forceLeftZ 	pointLeftX 	pointLeftY 	pointLeftZ 		
5.005000 298.722481 926.485856 -0.000000 0.275472 0.154688 -0.114808 -35.193361 93.699918 -0.000000 0.300038 0.500015 -0.365744
5.010000 288.565558 849.797039 -0.000000 0.265991 0.155618 -0.114609 -42.494125 104.294076 -0.000000 0.309242 0.500040 -0.365931
5.015000 276.931960 769.394446 -0.000000 0.256314 0.157218 -0.114426 -50.357546 111.503818 -0.000000 0.318458 0.499162 -0.365852
5.020000 262.985012 686.855962 -0.000000 0.247006 0.159690 -0.114452 -58.771704 116.025574 -0.000000 0.327682 0.497981 -0.365355
5.025000 247.496235 603.243759 -0.000000 0.237629 0.162867 -0.114145 -67.419304 118.891104 -0.000000 0.336362 0.496059 -0.365315
5.030000 231.783698 519.269511 -0.000000 0.228380 0.166445 -0.114105 -75.836831 121.303647 -0.000000 0.344887 0.492424 -0.365326
5.035000 215.235707 436.095850 -0.000000 0.219309 0.171109 -0.114197 -83.969624 124.241189 -0.000000 0.353234 0.489181 -0.365394
5.040000 197.593698 354.378916 -0.000000 0.210716 0.176600 -0.114228 -91.708083 128.620559 -0.000000 0.361123 0.485204 -0.365447
5.045000 178.215796 274.973227 -0.000000 0.202381 0.182442 -0.114220 -99.184511 135.056875 -0.000000 0.368508 0.482019 -0.365568
5.050000 158.553805 197.696504 -0.000000 0.194428 0.188728 -0.114272 -105.767062 144.670136 -0.000000 0.375605 0.476706 -0.365711
5.055000 138.257352 123.676401 -0.000000 0.186307 0.195547 -0.114665 -111.613386 157.983735 -0.000000 0.382091 0.470698 -0.364993
5.060000 117.449548 54.208111 -0.000000 0.179053 0.202757 -0.114861 -117.121181 175.267727 -0.000000 0.388133 0.463936 -0.365135
5.065000 96.788389 -9.972446 -0.000000 0.172158 0.210975 -0.115075 -121.894919 197.191166 -0.000000 0.393740 0.456260 -0.365459
5.070000 76.511690 -67.406287 -0.000000 0.165827 0.219127 -0.115076 -126.564458 223.572103 -0.000000 0.399166 0.448283 -0.365641
5.075000 56.992381 -117.109848 -0.000000 0.160109 0.227682 -0.114928 -131.135055 254.477228 -0.000000 0.404143 0.439967 -0.365661
5.080000 38.019414 -158.334862 -0.000000 0.154863 0.236432 -0.114766 -134.745701 290.127472 -0.000000 0.408813 0.430368 -0.366106
5.085000 20.412529 -190.318481 -0.000000 0.150540 0.245208 -0.114279 -138.363510 329.448196 -0.000000 0.412929 0.420944 -0.366181
5.090000 4.151557 -213.123009 -0.000000 0.146609 0.253927 -0.114125 -140.927817 371.951856 -0.000000 0.416452 0.411197 -0.366185
5.095000 -10.196611 -227.210112 -0.000000 0.143308 0.262695 -0.113788 -142.248605 416.595240 -0.000000 0.419470 0.401451 -0.366353
5.100000 -22.666898 -233.474116 -0.000000 0.140470 0.271703 -0.113494 -140.959337 462.865574 -0.000000 0.422028 0.391145 -0.366438
5.105000 -32.502247 -233.162441 -0.000000 0.138302 0.281014 -0.112979 -137.278790 509.943742 -0.000000 0.424002 0.380602 -0.366607
5.110000 -39.616682 -227.659147 -0.000000 0.136296 0.290843 -0.113001 -130.549976 557.562147 -0.000000 0.425596 0.369900 -0.366705
5.115000 -43.475992 -218.441105 -0.000000 0.134920 0.300743 -0.112926 -121.911771 605.245126 -0.000000 0.426749 0.359015 -0.366772
5.120000 -44.342950 -206.740531 -0.000000 0.134008 0.310868 -0.112877 -111.563412 652.979497 -0.000000 0.427399 0.348056 -0.366602
5.125000 -42.506938 -193.566664 -0.000000 0.133660 0.321145 -0.112864 -100.447232 700.754820 -0.000000 0.427561 0.337190 -0.366284
5.130000 -38.417838 -179.643614 -0.000000 0.133912 0.331015 -0.112831 -89.800195 748.661239 -0.000000 0.427176 0.326169 -0.366005
5.135000 -33.629290 -165.234878 -0.000000 0.134832 0.341917 -0.112817 -76.080190 797.361141 -0.000000 0.426458 0.314936 -0.365812
5.140000 -27.727663 -150.862038 -0.000000 0.136210 0.352360 -0.112769 -63.544385 846.591147 -0.000000 0.425103 0.303671 -0.365472
5.145000 -21.346818 -136.708127 -0.000000 0.138206 0.362724 -0.112859 -51.715913 896.650962 -0.000000 0.423175 0.292600 -0.365283
5.150000 -14.974430 -122.961305 -0.000000 0.140861 0.373114 -0.112958 -39.671896 947.716178 -0.000000 0.420786 0.281620 -0.365080
